<svg xmlns="http://www.w3.org/2000/svg" xmlns:xlink="http://www.w3.org/1999/xlink" width="500" zoomAndPan="magnify" viewBox="0 0 375 374.999991" height="500" preserveAspectRatio="xMidYMid meet" version="1.2"><defs><clipPath id="2224bfd352"><path d="M 223 223 L 368.707031 223 L 368.707031 368.707031 L 223 368.707031 Z M 223 223 "/></clipPath><clipPath id="ab463e2845"><path d="M 6.457031 6.457031 L 260 6.457031 L 260 260 L 6.457031 260 Z M 6.457031 6.457031 "/></clipPath></defs><g id="85f433f8dc"><g clip-rule="nonzero" clip-path="url(#2224bfd352)"><path style=" stroke:none;fill-rule:nonzero;fill:#ffffff;fill-opacity:1;" d="M 368.542969 332.332031 L 332.332031 368.542969 L 223.707031 259.917969 L 223.707031 223.707031 L 259.917969 223.707031 Z M 368.542969 332.332031 "/></g><g clip-rule="nonzero" clip-path="url(#ab463e2845)"><path style=" stroke:none;fill-rule:nonzero;fill:#ffffff;fill-opacity:1;" d="M 133.1875 259.917969 C 62.578125 259.917969 6.457031 203.792969 6.457031 133.1875 C 6.457031 62.578125 62.578125 6.457031 133.1875 6.457031 C 203.792969 6.457031 259.917969 62.578125 259.917969 133.1875 C 259.917969 203.792969 203.792969 259.917969 133.1875 259.917969 Z M 133.1875 42.664062 C 82.492188 42.664062 42.664062 82.492188 42.664062 133.1875 C 42.664062 183.878906 82.492188 223.707031 133.1875 223.707031 C 183.878906 223.707031 223.707031 183.878906 223.707031 133.1875 C 223.707031 82.492188 183.878906 42.664062 133.1875 42.664062 Z M 133.1875 42.664062 "/></g><path style=" stroke:none;fill-rule:nonzero;fill:#ffffff;fill-opacity:1;" d="M 198.792969 212.867188 L 211.59375 200.066406 L 256.394531 244.878906 L 243.589844 257.679688 Z M 198.792969 212.867188 "/></g></svg>