<svg xmlns="http://www.w3.org/2000/svg" xmlns:xlink="http://www.w3.org/1999/xlink" width="500" zoomAndPan="magnify" viewBox="0 0 375 374.999991" height="500" preserveAspectRatio="xMidYMid meet" version="1.2"><defs><clipPath id="ad18dcf255"><path d="M 166.550781 217.984375 L 368 217.984375 L 368 358.234375 L 166.550781 358.234375 Z M 166.550781 217.984375 "/></clipPath><clipPath id="fa4b16855d"><path d="M 26 14.285156 L 211.460938 14.285156 L 211.460938 200 L 26 200 Z M 26 14.285156 "/></clipPath></defs><g id="a53f5b8bf2"><g clip-rule="nonzero" clip-path="url(#ad18dcf255)"><path style=" stroke:none;fill-rule:nonzero;fill:#ffffff;fill-opacity:1;" d="M 341.9375 217.988281 L 192.242188 217.988281 C 178.082031 217.988281 166.5625 229.511719 166.5625 243.667969 L 166.5625 332.566406 C 166.5625 346.726562 178.082031 358.246094 192.242188 358.246094 L 341.9375 358.246094 C 356.097656 358.246094 367.617188 346.726562 367.617188 332.566406 L 367.617188 243.667969 C 367.617188 229.511719 356.097656 217.988281 341.9375 217.988281 Z M 341.9375 231.996094 C 342.285156 231.996094 342.578125 232.164062 342.921875 232.195312 L 274.328125 286.445312 C 270.070312 289.824219 264.117188 289.824219 259.847656 286.445312 L 191.257812 232.195312 C 191.597656 232.164062 191.894531 231.996094 192.242188 231.996094 Z M 353.609375 332.566406 C 353.609375 339.007812 348.371094 344.242188 341.9375 344.242188 L 192.242188 344.242188 C 185.804688 344.242188 180.570312 339.007812 180.570312 332.566406 L 180.570312 243.667969 C 180.570312 243.035156 180.835938 242.492188 180.929688 241.886719 L 251.160156 297.433594 C 255.851562 301.140625 261.46875 302.996094 267.089844 302.996094 C 272.710938 302.996094 278.332031 301.140625 283.019531 297.433594 L 353.25 241.886719 C 353.34375 242.492188 353.609375 243.035156 353.609375 243.667969 Z M 353.609375 332.566406 "/></g><g clip-rule="nonzero" clip-path="url(#fa4b16855d)"><path style=" stroke:none;fill-rule:nonzero;fill:#ffffff;fill-opacity:1;" d="M 118.398438 14.457031 C 66.75 14.628906 25.472656 56.6875 26.148438 108.40625 C 26.210938 113.613281 26.707031 118.777344 27.640625 123.898438 C 28.574219 129.019531 29.929688 134.027344 31.710938 138.917969 C 33.492188 143.8125 35.667969 148.519531 38.242188 153.042969 C 40.816406 157.566406 43.753906 161.839844 47.050781 165.863281 C 47.570312 166.503906 47.984375 167.203125 48.292969 167.964844 C 48.605469 168.730469 48.796875 169.519531 48.867188 170.339844 C 48.9375 171.160156 48.886719 171.976562 48.714844 172.78125 C 48.542969 173.585938 48.253906 174.347656 47.855469 175.066406 L 39.878906 189.378906 C 37.667969 193.347656 41.269531 198.039062 45.667969 196.917969 L 72.675781 190.027344 C 73.621094 189.789062 74.574219 189.71875 75.539062 189.820312 C 76.507812 189.917969 77.429688 190.179688 78.300781 190.605469 C 84.273438 193.511719 90.488281 195.746094 96.941406 197.304688 C 103.398438 198.867188 109.945312 199.71875 116.582031 199.859375 C 168.507812 201.035156 211.128906 159.484375 211.289062 107.464844 C 211.449219 56.019531 169.769531 14.28125 118.398438 14.457031 Z M 118.714844 188.460938 C 117.386719 188.460938 116.058594 188.429688 114.734375 188.363281 C 113.40625 188.296875 112.082031 188.199219 110.761719 188.070312 C 109.4375 187.9375 108.121094 187.777344 106.804688 187.582031 C 105.492188 187.386719 104.183594 187.160156 102.878906 186.898438 C 101.578125 186.640625 100.28125 186.347656 98.992188 186.023438 C 97.707031 185.703125 96.425781 185.347656 95.152344 184.960938 C 93.882812 184.574219 92.621094 184.15625 91.371094 183.710938 C 90.121094 183.261719 88.882812 182.78125 87.65625 182.273438 C 86.425781 181.765625 85.214844 181.226562 84.011719 180.65625 C 82.8125 180.085938 81.625 179.488281 80.453125 178.863281 C 79.28125 178.234375 78.125 177.578125 76.988281 176.894531 C 75.847656 176.210938 74.726562 175.5 73.621094 174.761719 C 72.515625 174.023438 71.429688 173.257812 70.363281 172.464844 C 69.296875 171.671875 68.25 170.851562 67.222656 170.007812 C 66.195312 169.164062 65.191406 168.296875 64.207031 167.402344 C 63.222656 166.507812 62.261719 165.59375 61.320312 164.652344 C 60.382812 163.710938 59.464844 162.746094 58.574219 161.761719 C 57.683594 160.777344 56.816406 159.769531 55.972656 158.742188 C 55.128906 157.710938 54.3125 156.664062 53.519531 155.59375 C 52.730469 154.527344 51.964844 153.4375 51.226562 152.332031 C 50.488281 151.226562 49.777344 150.101562 49.097656 148.960938 C 48.414062 147.820312 47.757812 146.664062 47.132812 145.492188 C 46.507812 144.316406 45.910156 143.128906 45.339844 141.925781 C 44.773438 140.722656 44.234375 139.507812 43.726562 138.277344 C 43.21875 137.050781 42.742188 135.808594 42.292969 134.554688 C 41.84375 133.304688 41.429688 132.039062 41.042969 130.769531 C 40.65625 129.496094 40.304688 128.214844 39.980469 126.921875 C 39.65625 125.632812 39.367188 124.335938 39.109375 123.03125 C 38.847656 121.722656 38.621094 120.414062 38.425781 119.097656 C 38.230469 117.78125 38.070312 116.460938 37.9375 115.136719 C 37.808594 113.8125 37.710938 112.488281 37.644531 111.160156 C 37.582031 109.832031 37.546875 108.5 37.546875 107.171875 C 37.546875 62.277344 73.890625 25.878906 118.714844 25.878906 C 163.371094 25.878906 199.601562 61.992188 199.882812 106.648438 C 200.164062 151.453125 163.457031 188.460938 118.714844 188.460938 Z M 118.714844 188.460938 "/></g><path style=" stroke:none;fill-rule:nonzero;fill:#ffffff;fill-opacity:1;" d="M 104.207031 67.648438 L 104.246094 67.722656 L 109.085938 77.339844 C 109.347656 77.855469 109.566406 78.390625 109.738281 78.945312 C 109.914062 79.496094 110.042969 80.058594 110.125 80.632812 C 110.210938 81.203125 110.246094 81.78125 110.238281 82.359375 C 110.226562 82.9375 110.171875 83.515625 110.070312 84.082031 C 109.96875 84.652344 109.820312 85.210938 109.628906 85.757812 C 109.4375 86.304688 109.203125 86.832031 108.925781 87.339844 C 108.648438 87.847656 108.335938 88.332031 107.980469 88.789062 C 107.625 89.246094 107.234375 89.671875 106.8125 90.066406 C 106.390625 90.460938 106.003906 90.882812 105.652344 91.335938 C 105.296875 91.789062 104.980469 92.269531 104.707031 92.773438 C 104.429688 93.28125 104.195312 93.804688 104 94.34375 C 103.808594 94.886719 103.660156 95.441406 103.558594 96.007812 C 103.453125 96.574219 103.394531 97.144531 103.382812 97.722656 C 103.371094 98.296875 103.40625 98.871094 103.484375 99.441406 C 103.566406 100.011719 103.691406 100.570312 103.859375 101.121094 C 104.03125 101.671875 104.242188 102.203125 104.5 102.71875 C 107.40625 108.5625 112.441406 116.621094 120.125 122.433594 C 120.984375 123.085938 121.921875 123.601562 122.9375 123.972656 C 123.953125 124.34375 125 124.558594 126.082031 124.617188 C 127.160156 124.671875 128.226562 124.570312 129.273438 124.304688 C 130.320312 124.042969 131.308594 123.628906 132.234375 123.066406 L 135.351562 121.167969 C 136.050781 120.742188 136.789062 120.398438 137.566406 120.140625 C 138.34375 119.882812 139.136719 119.71875 139.953125 119.644531 C 140.769531 119.566406 141.582031 119.585938 142.390625 119.695312 C 143.203125 119.808594 143.992188 120.007812 144.757812 120.300781 L 157.148438 125.019531 C 157.808594 125.269531 158.4375 125.582031 159.035156 125.957031 C 159.632812 126.332031 160.191406 126.761719 160.703125 127.25 C 161.21875 127.734375 161.679688 128.265625 162.085938 128.839844 C 162.496094 129.417969 162.847656 130.027344 163.136719 130.671875 C 163.425781 131.316406 163.648438 131.984375 163.804688 132.671875 C 163.964844 133.363281 164.054688 134.058594 164.074219 134.765625 C 164.09375 135.472656 164.046875 136.175781 163.929688 136.871094 C 163.8125 137.570312 163.628906 138.246094 163.378906 138.910156 C 163.234375 139.289062 163.066406 139.65625 162.882812 140.019531 L 159.449219 146.683594 C 159.171875 147.222656 158.847656 147.734375 158.484375 148.21875 C 158.121094 148.703125 157.71875 149.15625 157.277344 149.574219 C 156.835938 149.988281 156.363281 150.367188 155.859375 150.703125 C 155.355469 151.039062 154.828125 151.332031 154.273438 151.578125 C 153.722656 151.824219 153.152344 152.023438 152.566406 152.175781 C 151.976562 152.328125 151.382812 152.425781 150.777344 152.476562 C 150.175781 152.527344 149.570312 152.527344 148.96875 152.476562 C 148.363281 152.421875 147.769531 152.320312 147.183594 152.167969 C 127.71875 147.125 81.335938 129.597656 77.597656 76.589844 C 77.523438 75.535156 77.601562 74.496094 77.832031 73.46875 C 78.0625 72.4375 78.4375 71.464844 78.953125 70.546875 C 79.46875 69.625 80.109375 68.800781 80.867188 68.070312 C 81.625 67.335938 82.472656 66.730469 83.410156 66.25 L 89.730469 62.996094 C 90.355469 62.671875 91.011719 62.414062 91.6875 62.21875 C 92.367188 62.023438 93.058594 61.898438 93.761719 61.839844 C 94.464844 61.78125 95.167969 61.792969 95.871094 61.875 C 96.570312 61.953125 97.257812 62.101562 97.929688 62.320312 C 98.605469 62.535156 99.25 62.816406 99.867188 63.160156 C 100.484375 63.5 101.0625 63.902344 101.597656 64.359375 C 102.136719 64.816406 102.625 65.320312 103.066406 65.875 C 103.503906 66.429688 103.886719 67.019531 104.207031 67.648438 Z M 104.207031 67.648438 "/></g></svg>