<svg xmlns="http://www.w3.org/2000/svg" xmlns:xlink="http://www.w3.org/1999/xlink" width="500" zoomAndPan="magnify" viewBox="0 0 375 374.999991" height="500" preserveAspectRatio="xMidYMid meet" version="1.2"><g id="dd010d58bd"><path style=" stroke:none;fill-rule:nonzero;fill:#ffffff;fill-opacity:1;" d="M 187.496094 15 C 220.316406 15 247.796875 38.660156 253.902344 69.953125 L 254.664062 69.953125 C 258.480469 69.953125 262.296875 70.71875 265.351562 72.242188 C 260.007812 34.082031 227.1875 4.3125 187.496094 4.3125 C 147.042969 4.3125 114.222656 34.082031 109.644531 73.007812 C 112.699219 70.71875 116.515625 69.953125 121.09375 69.191406 C 127.199219 38.660156 154.675781 15 187.496094 15 Z M 187.496094 15 "/><path style=" stroke:none;fill-rule:nonzero;fill:#ffffff;fill-opacity:1;" d="M 269.929688 111.933594 L 269.929688 92.089844 C 269.929688 85.980469 266.113281 79.875 260.007812 78.347656 C 260.007812 78.347656 260.007812 79.113281 260.007812 79.113281 C 263.824219 102.773438 259.246094 118.800781 254.664062 127.199219 C 263.824219 127.199219 269.929688 120.328125 269.929688 111.933594 Z M 269.929688 111.933594 "/><path style=" stroke:none;fill-rule:nonzero;fill:#ffffff;fill-opacity:1;" d="M 121.09375 127.199219 C 116.515625 118.039062 112.699219 102.773438 116.515625 79.113281 C 116.515625 79.113281 116.515625 78.347656 116.515625 78.347656 C 111.171875 80.640625 106.589844 85.980469 106.589844 92.851562 L 106.589844 112.695312 C 106.589844 122.617188 114.222656 126.433594 121.09375 127.199219 Z M 121.09375 127.199219 "/><path style=" stroke:none;fill-rule:nonzero;fill:#ffffff;fill-opacity:1;" d="M 163.835938 274.507812 C 162.308594 275.273438 160.785156 275.273438 159.257812 275.273438 C 153.914062 275.273438 148.570312 272.21875 146.28125 267.640625 L 123.382812 224.132812 L 53.925781 253.902344 C 46.292969 257.71875 40.949219 264.585938 39.425781 272.980469 L 25.683594 343.964844 C 22.632812 357.703125 33.316406 370.679688 47.820312 370.679688 L 159.257812 370.679688 L 168.414062 282.90625 Z M 163.835938 274.507812 "/><path style=" stroke:none;fill-rule:nonzero;fill:#ffffff;fill-opacity:1;" d="M 350.074219 343.964844 L 336.335938 272.980469 C 334.808594 264.585938 329.464844 257.71875 321.832031 253.902344 L 252.375 224.132812 L 229.476562 267.640625 C 227.1875 272.21875 221.84375 275.273438 216.5 275.273438 C 214.976562 275.273438 213.449219 275.273438 211.921875 274.507812 L 208.105469 282.140625 L 217.265625 370.679688 L 327.9375 370.679688 C 342.441406 370.679688 352.363281 357.703125 350.074219 343.964844 Z M 350.074219 343.964844 "/><path style=" stroke:none;fill-rule:nonzero;fill:#ffffff;fill-opacity:1;" d="M 205.050781 269.929688 C 204.289062 269.164062 204.289062 269.164062 203.527344 268.402344 L 187.496094 243.976562 L 170.707031 268.402344 C 170.707031 269.164062 169.941406 269.164062 169.941406 269.929688 L 175.285156 280.613281 L 165.363281 370.679688 L 208.867188 370.679688 L 198.945312 281.378906 Z M 205.050781 269.929688 "/><path style=" stroke:none;fill-rule:nonzero;fill:#ffffff;fill-opacity:1;" d="M 245.503906 127.199219 L 247.03125 127.199219 C 250.847656 121.09375 256.953125 105.828125 253.136719 79.875 C 253.136719 79.875 252.375 40.1875 203.527344 31.027344 C 193.605469 29.5 183.679688 29.5 174.523438 31.027344 C 125.671875 40.1875 124.910156 79.875 124.910156 79.875 C 119.566406 115.75 132.542969 131.015625 133.304688 131.015625 C 139.410156 163.835938 160.785156 203.523438 189.023438 203.523438 C 206.578125 203.523438 221.082031 189.023438 231.765625 169.941406 C 228.714844 170.703125 225.660156 171.46875 222.609375 171.46875 C 221.84375 172.230469 221.84375 172.230469 221.082031 172.996094 C 212.683594 186.734375 201.234375 195.890625 189.023438 195.890625 C 161.546875 195.890625 138.648438 146.28125 138.648438 115.75 C 138.648438 104.300781 135.59375 92.089844 138.648438 81.402344 C 145.519531 70.71875 160.785156 73.007812 160.785156 73.007812 C 202.761719 85.980469 216.5 65.375 234.058594 75.296875 C 237.871094 83.691406 239.398438 96.667969 239.398438 114.984375 C 239.398438 123.382812 237.871094 133.304688 234.820312 143.226562 C 241.6875 137.882812 243.980469 130.25 245.503906 127.199219 Z M 245.503906 127.199219 "/><path style=" stroke:none;fill-rule:nonzero;fill:#ffffff;fill-opacity:1;" d="M 222.609375 263.824219 L 245.503906 221.082031 L 230.242188 199.707031 L 188.261719 230.238281 L 211.160156 264.585938 C 213.449219 269.164062 219.554688 268.402344 222.609375 263.824219 Z M 222.609375 263.824219 "/><path style=" stroke:none;fill-rule:nonzero;fill:#ffffff;fill-opacity:1;" d="M 188.261719 221.082031 L 187.496094 220.316406 L 186.734375 221.082031 Z M 188.261719 221.082031 "/><path style=" stroke:none;fill-rule:nonzero;fill:#ffffff;fill-opacity:1;" d="M 164.597656 264.585938 L 187.496094 230.238281 L 145.519531 199.707031 L 130.253906 221.082031 L 153.152344 263.824219 C 155.441406 268.402344 161.546875 269.164062 164.597656 264.585938 Z M 164.597656 264.585938 "/><path style=" stroke:none;fill-rule:nonzero;fill:#ffffff;fill-opacity:1;" d="M 258.480469 134.832031 C 256.953125 134.832031 256.191406 134.832031 255.429688 134.832031 L 250.847656 134.832031 C 245.503906 147.042969 233.292969 156.203125 218.027344 156.964844 C 216.5 154.675781 214.210938 153.148438 211.160156 153.148438 L 198.945312 153.148438 C 194.367188 153.148438 191.3125 156.964844 191.3125 160.78125 C 191.3125 172.230469 206.578125 167.652344 211.160156 168.414062 C 214.210938 168.414062 216.5 166.886719 218.027344 163.835938 C 236.347656 163.070312 252.375 151.621094 258.480469 134.832031 Z M 258.480469 134.832031 "/></g></svg>